<svg width="229" height="50" viewBox="0 0 229 50" fill="none" xmlns="http://www.w3.org/2000/svg">
<path fill-rule="evenodd" clip-rule="evenodd" d="M48.0179 24.7929L48.017 24.7924C44.5855 22.838 37.9008 19.0306 37.8743 18.8812C37.8573 18.7907 37.8399 18.6966 37.822 18.5993L37.8217 18.5974C37.5516 17.1301 37.1495 14.9459 35.5814 13.7811C34.4783 12.9688 28.5153 10.2108 25.7776 8.94457C24.9417 8.55799 24.4065 8.31045 24.402 8.29978C22.6123 5.65215 21.0263 2.8779 19.6571 0C18.3569 0.957792 17.2993 2.19565 16.5664 3.61769C15.8335 5.03974 15.4448 6.60781 15.4306 8.20046C10.6557 8.87021 6.17411 10.8561 2.50959 13.926C12.0131 11.7947 14.7504 13.7596 14.7504 13.7596C11.6389 14.3021 8.6408 15.3451 5.87766 16.8465C1.82665 19.0261 0 21.6433 0 21.6433C0 21.6433 9.19911 19.0691 16.2589 21.5735C12.9667 22.0281 9.90646 23.4922 7.51782 25.7556C22.1503 27.5299 29.3664 39.9581 32.4026 50C33.5189 32.1388 24.4322 25.3557 24.4322 25.3557C27.0707 25.5409 30.3894 27.5487 32.5123 30.5363C38.9048 29.8312 42.4992 31.7153 42.5583 31.7621C42.5678 31.7552 42.714 31.7078 42.9615 31.6274C43.9575 31.304 46.5937 30.448 48.5764 29.5539C48.3598 29.2344 47.4492 28.1258 46.9308 27.5058C47.0021 27.5111 48.9933 27.3957 49.9999 25.9274C50.0098 25.9274 49.2104 25.4721 48.0179 24.7929ZM29.8505 18.0062C30.3227 17.882 33.1591 17.1361 34.0071 17.4505C34.8299 17.7538 34.8463 20.0462 34.8463 20.0462C34.8463 20.0462 32.9676 20.3039 29.7888 18.0222L29.805 18.0181L29.849 18.0066L29.8505 18.0062Z" fill="white"/>
<path d="M146.013 20.1522H147.836V19.505C147.836 18.1165 148.233 16.9859 148.993 16.2015C149.755 15.4158 150.86 15 152.229 15C153.473 15 154.488 15.3478 155.361 15.9515L155.5 16.0479L154.26 18.1181L154.095 17.9904C153.6 17.6092 153.07 17.4017 152.411 17.4017C151.86 17.4017 151.424 17.5729 151.125 17.8921C150.824 18.2131 150.639 18.707 150.639 19.393V20.1522H154.643V22.5764H150.639V32.2088H147.836V22.5764H145.37L146.013 20.1522Z" fill="white"/>
<path d="M143.6 15.2912H140.797V32.2088H143.6V15.2912Z" fill="white"/>
<path d="M120.012 32.4552H120.738L125.777 20.1522H122.735L120.301 26.9566L117.323 20.085H116.577L113.664 26.9568L111.165 20.1522H108.102L113.095 32.4552H113.844L116.928 25.1102L120.012 32.4552Z" fill="white"/>
<path fill-rule="evenodd" clip-rule="evenodd" d="M106.252 22.7776L106.449 22.7906V19.973H106.265C104.824 19.973 103.123 20.3554 101.972 22.05L101.917 20.1522H99.2102V32.2088H102.013V26.3821C102.013 24.8432 102.593 23.924 103.39 23.3968C104.2 22.862 105.262 22.7118 106.252 22.7776Z" fill="white"/>
<path fill-rule="evenodd" clip-rule="evenodd" d="M88.6895 29.1933C88.1289 28.6928 87.7566 27.9538 87.6213 26.967H96.6524V26.7853C96.6524 26.6789 96.6578 26.577 96.6635 26.4701L96.6636 26.4681C96.6692 26.3629 96.6751 26.2525 96.6751 26.1357C96.6751 24.1625 96.0839 22.5857 95.0529 21.5006C94.021 20.4146 92.5649 19.8386 90.8718 19.8386C87.5173 19.8386 84.7272 22.294 84.7272 26.1581C84.7272 28.1232 85.3545 29.7125 86.4613 30.811C87.5679 31.9095 89.1366 32.5 90.9855 32.5C93.0987 32.5 94.7435 31.8797 96.0805 30.4476L96.1895 30.3309L94.6395 28.4888L94.4963 28.6268C93.4609 29.6247 92.4378 30.0086 91.1675 30.0086C90.1206 30.0086 89.2874 29.727 88.6895 29.1933ZM90.849 22.218C91.7145 22.218 92.3931 22.5042 92.8808 22.9975C93.3337 23.4554 93.6343 24.1045 93.7557 24.9012H87.6833C88.0497 23.2601 89.2675 22.218 90.849 22.218Z" fill="white"/>
<path fill-rule="evenodd" clip-rule="evenodd" d="M77.3595 32.4552H78.0663L84.2547 20.1522H81.0846L77.7688 27.5691L74.409 20.1522H71.1946L77.3595 32.4552Z" fill="white"/>
<path fill-rule="evenodd" clip-rule="evenodd" d="M125.948 26.1805C125.948 30.1442 128.954 32.5 132.321 32.5C135.734 32.5 138.693 30.1205 138.693 26.1805C138.693 22.1728 135.711 19.8386 132.343 19.8386C128.931 19.8386 125.948 22.1948 125.948 26.1805ZM135.821 26.1581C135.821 28.5948 134.147 30.0086 132.321 30.0086C130.45 30.0086 128.82 28.5955 128.82 26.1805C128.82 23.7445 130.494 22.33 132.343 22.33C134.213 22.33 135.821 23.7416 135.821 26.1581Z" fill="white"/>
<path fill-rule="evenodd" clip-rule="evenodd" d="M58 26.1805C58 30.1442 61.0053 32.5 64.3721 32.5C67.7857 32.5 70.7441 30.1205 70.7441 26.1805C70.7441 22.1728 67.7624 19.8386 64.3948 19.8386C60.9821 19.8386 58 22.1948 58 26.1805ZM67.8729 26.1581C67.8729 28.5948 66.1981 30.0086 64.3721 30.0086C62.5012 30.0086 60.8712 28.5955 60.8712 26.1805C60.8712 23.7445 62.5453 22.33 64.3948 22.33C66.2642 22.33 67.8729 23.7416 67.8729 26.1581Z" fill="white"/>
<path d="M171 37.5H168.684C167.627 37.5 166.811 37.2238 166.261 36.681C165.71 36.1382 165.443 35.3312 165.443 34.2672V27.8689C165.443 27.2252 165.327 26.7761 165.098 26.5287C164.869 26.2813 164.48 26.1709 163.901 26.1564H163.5V23.7139H163.901C164.48 23.6994 164.882 23.5745 165.098 23.3416C165.314 23.1086 165.443 22.6451 165.443 22.0014V15.7328C165.443 14.6688 165.718 13.857 166.261 13.319C166.804 12.781 167.627 12.5 168.684 12.5H171V14.8489H169.366C169.045 14.8489 168.633 14.8489 168.435 15.0363C168.278 15.257 168.208 15.5222 168.239 15.7856V21.8621C168.239 22.9021 168.1 23.6514 167.817 24.1534C167.635 24.4652 167.379 24.7339 167.069 24.9388C167.394 25.141 167.66 25.417 167.84 25.7409C168.113 26.2381 168.247 26.9779 168.247 27.9986V34.2048C168.218 34.4681 168.287 34.7328 168.443 34.9541C168.534 35.026 168.64 35.0797 168.755 35.1119C168.87 35.1441 168.99 35.1542 169.109 35.1415H171V37.5Z" fill="#D34037"/>
<path d="M188.528 14.7856V31.875H186.169L186.1 29.8169C185.198 31.2737 183.741 32.1756 181.753 32.1756C178.191 32.1756 176.064 29.3775 176.064 25.8625C176.064 22.3012 178.399 19.48 181.799 19.48C183.764 19.48 185.175 20.3356 186.054 21.7V14.7856H188.528ZM182.261 29.9787C184.227 29.9787 185.846 28.6375 186.054 26.3481V25.3075C185.846 23.0412 184.366 21.7 182.377 21.7C180.249 21.7 178.608 23.3187 178.608 25.8394C178.608 28.3831 180.157 29.9787 182.261 29.9787ZM203.35 25.7931C203.35 26.0244 203.327 26.2325 203.327 26.4637H194.123C194.354 28.7762 195.742 29.9787 197.939 29.9787C199.28 29.9787 200.367 29.5625 201.454 28.4987L202.795 30.1175C201.477 31.5512 199.858 32.1756 197.754 32.1756C194.077 32.1756 191.579 29.7937 191.579 25.8162C191.579 21.9312 194.331 19.48 197.638 19.48C200.991 19.48 203.35 21.7925 203.35 25.7931ZM197.615 21.5612C195.834 21.5612 194.493 22.81 194.169 24.7062H200.783C200.575 22.81 199.465 21.5612 197.615 21.5612ZM216.898 19.8037L210.793 32.1294H210.308L204.226 19.8037H207.07L210.608 27.7356L214.1 19.8037H216.898Z" fill="white"/>
<path d="M221 37.5H223.316C224.373 37.5 225.189 37.2238 225.739 36.681C226.29 36.1382 226.557 35.3312 226.557 34.2672V27.8689C226.557 27.2252 226.673 26.7761 226.902 26.5287C227.131 26.2813 227.52 26.1709 228.099 26.1564H228.5V23.7139H228.099C227.52 23.6994 227.118 23.5745 226.902 23.3416C226.686 23.1086 226.557 22.6451 226.557 22.0014V15.7328C226.557 14.6688 226.282 13.857 225.739 13.319C225.196 12.781 224.373 12.5 223.316 12.5H221V14.8489H222.634C222.955 14.8489 223.367 14.8489 223.565 15.0363C223.722 15.257 223.792 15.5222 223.761 15.7856V21.8621C223.761 22.9021 223.9 23.6514 224.183 24.1534C224.365 24.4652 224.621 24.7339 224.931 24.9388C224.606 25.141 224.34 25.417 224.16 25.7409C223.887 26.2381 223.753 26.9779 223.753 27.9986V34.2048C223.782 34.4681 223.713 34.7328 223.557 34.9541C223.466 35.026 223.36 35.0797 223.245 35.1119C223.13 35.1441 223.01 35.1542 222.891 35.1415H221V37.5Z" fill="#D34037"/>
</svg>
