<svg width="136" height="74" viewBox="0 0 136 74" fill="none" xmlns="http://www.w3.org/2000/svg">
<g clip-path="url(#clip0_2228_21163)">
<rect width="136" height="4" fill="#4D4D4D"/>
<rect width="136" height="70" transform="translate(0 4)" fill="#333333"/>
<rect width="34" height="28" transform="translate(1 45)" fill="#D34037"/>
<path fill-rule="evenodd" clip-rule="evenodd" d="M17.9997 65.6667C21.6816 65.6667 24.6663 62.6819 24.6663 59C24.6663 55.3181 21.6816 52.3334 17.9997 52.3334C14.3178 52.3334 11.333 55.3181 11.333 59C11.333 62.6819 14.3178 65.6667 17.9997 65.6667ZM18.6663 55.6944V54.3334H17.333V55.6667C16.2284 55.6667 15.333 56.5621 15.333 57.6667C15.333 58.7713 16.2284 59.6667 17.333 59.6667H18.6663C19.0345 59.6667 19.333 59.9652 19.333 60.3334C19.333 60.7016 19.0345 61 18.6663 61H17.333C16.9648 61 16.6663 60.7016 16.6663 60.3334H15.333C15.333 61.4379 16.2284 62.3334 17.333 62.3334V63.6667H18.6663V62.3334C19.7709 62.3334 20.6663 61.4379 20.6663 60.3334C20.6663 59.2288 19.7709 58.3334 18.6663 58.3334H17.333C16.9648 58.3334 16.6663 58.0349 16.6663 57.6667C16.6663 57.2985 16.9648 57 17.333 57H18.333C18.7012 57 18.9997 57.2985 18.9997 57.6667H20.333C20.333 56.6757 19.6122 55.8531 18.6663 55.6944Z" fill="white"/>
<rect width="46" height="68" transform="translate(89 5)" fill="#D34037"/>
<path fill-rule="evenodd" clip-rule="evenodd" d="M112 45.6667C115.682 45.6667 118.666 42.6819 118.666 39C118.666 35.3181 115.682 32.3334 112 32.3334C108.318 32.3334 105.333 35.3181 105.333 39C105.333 42.6819 108.318 45.6667 112 45.6667ZM112.666 35.6944V34.3334H111.333V35.6667C110.228 35.6667 109.333 36.5621 109.333 37.6667C109.333 38.7713 110.228 39.6667 111.333 39.6667H112.666C113.035 39.6667 113.333 39.9652 113.333 40.3334C113.333 40.7016 113.035 41 112.666 41H111.333C110.965 41 110.666 40.7016 110.666 40.3334H109.333C109.333 41.4379 110.228 42.3334 111.333 42.3334V43.6667H112.666V42.3334C113.771 42.3334 114.666 41.4379 114.666 40.3334C114.666 39.2288 113.771 38.3334 112.666 38.3334H111.333C110.965 38.3334 110.666 38.0349 110.666 37.6667C110.666 37.2985 110.965 37 111.333 37H112.333C112.701 37 113 37.2985 113 37.6667H114.333C114.333 36.6757 113.612 35.8531 112.666 35.6944Z" fill="white"/>
<path fill-rule="evenodd" clip-rule="evenodd" d="M55 24L51 22V38H55V24ZM73 26L69 24V38H73V26ZM63 28L67 30V38H63V28ZM61 24L57 22V38H61V24Z" fill="#4D4D4D"/>
<path d="M51 56H73L70 52L67 53L64 49L57 52L51 46V56Z" fill="#4D4D4D"/>
</g>
<defs>
<clipPath id="clip0_2228_21163">
<rect width="136" height="74" fill="white"/>
</clipPath>
</defs>
</svg>
